PathFileType	4	(X/Y/Z)	E:\Qualisys_Data\Carbon_Farble_Plate\Data\Amateur_Runner\S14\T2\S14T2V21_c3d.trc
DataRate	CameraRate	NumFrames	NumMarkers	Units	OrigDataRate	OrigDataStartFrame	OrigNumFrames
200.000000	200.000000	4	39	mm	200.000000	37	303
Frame#	Time	LSHO			RSHO			LICST			RICST			LASIS			LHEEL			RASIS			LTROC			RTROC			SACR			LTH1			LSK4			LTH2			LTH3			RHM5			LSK2			LTH4			RTH1			LTOE			RTH2			RTH3			RTH4			LLEP			RLEP			LSK1			LSK3			RSK1			LHM5			RSK2			LFT1			RSK3			RSK4			LLME			RLME			RTOE			RHEEL			RFT1			RFT2			LFT2			
		X1	Y1	Z1	X2	Y2	Z2	X3	Y3	Z3	X4	Y4	Z4	X5	Y5	Z5	X6	Y6	Z6	X7	Y7	Z7	X8	Y8	Z8	X9	Y9	Z9	X10	Y10	Z10	X11	Y11	Z11	X12	Y12	Z12	X13	Y13	Z13	X14	Y14	Z14	X15	Y15	Z15	X16	Y16	Z16	X17	Y17	Z17	X18	Y18	Z18	X19	Y19	Z19	X20	Y20	Z20	X21	Y21	Z21	X22	Y22	Z22	X23	Y23	Z23	X24	Y24	Z24	X25	Y25	Z25	X26	Y26	Z26	X27	Y27	Z27	X28	Y28	Z28	X29	Y29	Z29	X30	Y30	Z30	X31	Y31	Z31	X32	Y32	Z32	X33	Y33	Z33	X34	Y34	Z34	X35	Y35	Z35	X36	Y36	Z36	X37	Y37	Z37	X38	Y38	Z38	X39	Y39	Z39	

38	0.185	-1882.163452148438	1395.17431640625	-470.2050476074219	-1869.547607421875	1388.460815429688	-163.1797943115234	-1953.290649414062	946.4879760742188	-458.7237854003906	-1930.848876953125	959.2891845703124	-177.4165649414062	-1911.036743164062	898.3892822265625	-434.9091491699219	-2226.64306640625	477.1466064453125	-353.9032287597656	-1904.410400390625	919.1882934570312	-198.5318756103516	-2037.208129882812	820.2368774414062	-468.5592346191406	-2044.47802734375	844.9503784179688	-146.3520965576172	-2079.591796875	959.2491455078124	-324.4691772460938	-1874.028564453125	636.6420288085938	-490.8435974121094	-2033.036743164062	490.4264831542969	-445.3659362792969	-1940.593017578125	604.10888671875	-463.1100463867188	-1821.566772460938	551.3301391601562	-477.3138732910156	-2038.381469726562	76.9604721069336	-184.0296020507812	-1938.353515625	505.4286499023438	-470.0793151855469	-1891.543212890625	518.3255615234375	-453.9674682617188	-1889.506103515625	631.2105102539062	-150.0406646728516	-2204.031005859375	222.5767517089844	-394.6182556152344	-1966.423217773438	626.4263916015625	-144.6453704833984	-1879.400390625	536.4669189453125	-183.2429656982422	-1961.7119140625	527.8846435546875	-169.5689849853516	-1854.4912109375	486.5693054199219	-474.8603820800781	-1934.123046875	459.0364074707031	-181.4567108154297	-1922.084350585938	424.673583984375	-462.5812072753906	-2020.976928710938	410.23486328125	-441.871826171875	-1956.74072265625	337.0596008300781	-185.6360168457031	-2232.058837890625	291.436767578125	-453.6145324707031	-2033.009887695312	374.9999694824219	-173.8244018554688	-2254.790771484375	462.7447509765625	-334.2967834472656	-2012.510498046875	251.4860229492188	-205.9072723388672	-2077.628662109375	292.0845031738281	-190.4033660888672	-2192.94287109375	428.3851623535156	-421.8494873046875	-2144.185302734375	138.0808410644531	-219.2497863769531	-1960.716430664062	70.2635726928711	-247.40283203125	-2213.173095703125	120.9267730712891	-276.2894592285156	-2204.3447265625	83.60667419433594	-297.8825988769531	-2217.85400390625	96.82453918457033	-243.6821899414062	-2258.409912109375	473.4466247558594	-389.3849792480469
39	0.19	-1865.526733398438	1398.511474609375	-471.4087219238281	-1847.159057617188	1390.7119140625	-164.7720794677734	-1934.427734375	949.0818481445312	-457.5796813964844	-1911.410400390625	960.9795532226562	-178.1267395019531	-1893.597290039062	900.8543701171876	-435.8577880859375	-2200.887451171875	469.0974426269531	-355.4194946289062	-1884.453857421875	920.8944091796876	-198.210693359375	-2016.955444335938	823.3317260742188	-469.4126586914062	-2025.9853515625	847.7683715820312	-146.9384002685547	-2060.114013671875	962.0516967773438	-324.4909057617188	-1850.4697265625	643.064208984375	-490.9069213867188	-2005.480102539062	490.0390319824219	-446.2167053222656	-1916.180908203125	607.852783203125	-462.3717651367188	-1795.770385742188	559.3157958984375	-477.2026062011719	-2038.436889648438	77.27995300292969	-184.1670074462891	-1911.268676757812	509.1082763671875	-470.5964050292969	-1865.56298828125	524.0189819335938	-454.0000915527344	-1877.355224609375	630.0718383789062	-150.6154479980469	-2163.375732421875	215.9630737304688	-396.7045288085938	-1955.562866210938	628.0130004882812	-144.7020416259766	-1870.034912109375	534.6568603515625	-184.2254791259766	-1953.196655273438	528.87060546875	-171.010986328125	-1828.3115234375	495.9436340332031	-474.5547180175781	-1928.351684570312	458.98046875	-182.6966552734375	-1892.576049804688	429.3493041992188	-463.1883544921875	-1990.967895507812	410.6786193847656	-443.1906127929688	-1952.443237304688	338.5300598144531	-186.6710357666016	-2194.981201171875	282.3184509277344	-454.27880859375	-2028.04931640625	377.0662231445312	-174.6641693115234	-2226.688720703125	452.2720947265625	-334.7745056152344	-2008.8505859375	252.7388305664062	-205.8067016601562	-2074.484619140625	294.6277160644531	-191.156005859375	-2162.838134765625	420.9034729003906	-422.5203552246094	-2140.81298828125	139.6161499023438	-219.4002227783203	-1960.691162109375	70.10499572753906	-247.3692626953125	-2211.844970703125	122.9112701416016	-276.4684753417969	-2203.3505859375	86.54325866699219	-298.1834106445312	-2217.54931640625	100.2824554443359	-245.3124084472656	-2230.701416015625	463.0642395019531	-390.1151428222656
40	0.195	-1849.112915039062	1401.761474609375	-472.4928283691406	-1824.931396484375	1393.979370117188	-166.4708557128906	-1915.222900390625	951.8494262695312	-457.5272521972656	-1891.020629882812	963.95166015625	-177.7483673095703	-1875.431274414062	904.0523681640624	-436.1037292480469	-2175.362060546875	460.2105712890625	-356.9012145996094	-1864.98095703125	923.0390625	-198.7277679443359	-1996.692993164062	826.9595336914062	-470.5271606445312	-2007.945190429688	850.2048950195312	-147.9580688476562	-2041.32470703125	965.4508056640624	-324.4885559082031	-1828.053833007812	648.576904296875	-491.1383972167969	-1977.734375	488.8052673339844	-446.2774658203125	-1891.835205078125	612.3634033203125	-461.8731079101562	-1770.488159179688	566.650390625	-477.2214965820312	-2037.714477539062	77.7896728515625	-184.1963653564453	-1884.513549804688	512.1422119140625	-469.1627502441406	-1839.15869140625	530.0223999023438	-453.5706481933594	-1865.171875	629.6007690429688	-151.4952850341797	-2124.532470703125	208.5907897949219	-398.3067626953125	-1942.847778320312	630.0917358398438	-145.4305572509766	-1860.556884765625	534.2996826171875	-184.9872436523438	-1946.7490234375	530.8009033203125	-170.3159484863281	-1801.41748046875	502.5610961914062	-474.4025268554688	-1921.587280273438	460.2620849609375	-183.734619140625	-1862.3828125	432.6515808105469	-462.7836303710938	-1960.308837890625	410.4602661132812	-443.5455932617188	-1948.5517578125	339.2074584960938	-186.9909057617188	-2158.45458984375	274.0762939453125	-456.1419677734375	-2022.773315429688	379.7449645996094	-175.4689483642578	-2199.60400390625	441.1567077636719	-335.6278381347656	-2005.530029296875	254.7718353271484	-206.5050201416016	-2070.29248046875	297.8879089355469	-191.8261413574219	-2132.802734375	413.8001708984375	-423.4473571777344	-2139.048583984375	142.5758209228516	-219.6471710205078	-1960.671630859375	70.21551513671875	-247.5131225585938	-2210.250732421875	126.8306198120117	-276.9825744628906	-2202.596923828125	90.12871551513672	-298.2900085449219	-2215.781005859375	104.3588409423828	-244.8410034179688	-2203.05419921875	451.7197570800781	-391.1637268066406
41	0.2	-1832.102905273438	1405.463256835938	-473.2822570800781	-1802.809692382812	1396.550537109375	-168.4053802490234	-1899.819580078125	956.9531860351562	-459.6546630859375	-1871.1708984375	966.6780395507812	-178.9288330078125	-1850.045166015625	907.787353515625	-434.5061340332031	-2142.9189453125	446.6987609863281	-355.9353332519531	-1845.634643554688	925.0943603515624	-198.6017456054688	-1976.199096679688	831.0133056640625	-471.8282470703125	-1988.569702148438	853.2496337890625	-148.5887908935547	-2020.9345703125	968.3734130859376	-324.9354858398438	-1805.094848632812	654.756591796875	-491.09033203125	-1951.096801757812	488.6253051757812	-446.9067687988281	-1867.582885742188	617.1488037109375	-461.1105651855469	-1745.484008789062	573.96533203125	-476.9375915527344	-2037.337646484375	78.30270385742188	-184.2817535400391	-1857.810424804688	514.9359741210938	-468.8498840332031	-1813.58544921875	535.8643798828125	-452.8542785644531	-1852.709228515625	629.4725341796875	-153.1840667724609	-2083.348388671875	200.606201171875	-400.4817810058594	-1931.060913085938	632.2732543945312	-147.0552825927734	-1851.909423828125	533.915283203125	-186.4488372802734	-1935.305053710938	532.91748046875	-172.6615447998047	-1772.496704101562	506.5015563964844	-473.2323608398438	-1915.320068359375	461.3803405761719	-183.6310729980469	-1833.303466796875	437.0518188476562	-463.03173828125	-1930.050903320312	410.6240844726562	-444.2791137695312	-1942.849487304688	341.2395935058594	-187.4741363525391	-2120.041748046875	265.039794921875	-456.947021484375	-2017.435302734375	382.5032958984375	-176.3908386230469	-2171.4326171875	429.453125	-337.5015563964844	-2002.697998046875	257.2483825683594	-207.0108795166016	-2066.074462890625	301.2562255859375	-192.1568756103516	-2102.20751953125	405.5745239257812	-423.8902893066406	-2136.4658203125	147.0858459472656	-220.1017303466797	-1956.797973632812	71.89802551269531	-246.8885498046875	-2207.1259765625	131.9981231689453	-275.4503784179688	-2201.02734375	95.01126861572266	-297.8381652832031	-2213.099365234375	109.1180648803711	-244.3139038085938	-2175.221923828125	440.9437561035156	-392.0163269042969
